<svg xmlns="http://www.w3.org/2000/svg" version="1.1" xmlns:xlink="http://www.w3.org/1999/xlink" xmlns:svgjs="http://svgjs.dev/svgjs" width="2000" height="1440" viewBox="0 0 2000 1440"><g transform="matrix(1,0,0,1,-0.24448708234024252,0.5840725232829982)"><svg viewBox="0 0 343 247" data-background-color="#1b4571" preserveAspectRatio="xMidYMid meet" height="1440" width="2000" xmlns="http://www.w3.org/2000/svg" xmlns:xlink="http://www.w3.org/1999/xlink"><g id="tight-bounds" transform="matrix(1,0,0,1,0.042039060036046294,-0.09997365579206985)"><svg viewBox="0 0 342.9160314053426 247.2" height="247.2" width="342.9160314053426"><g><svg viewBox="0 0 342.9160314053426 247.2" height="247.2" width="342.9160314053426"><g><svg viewBox="0 0 342.9160314053426 247.2" height="247.2" width="342.9160314053426"><g id="textblocktransform"><svg viewBox="0 0 342.9160314053426 247.2" height="247.2" width="342.9160314053426" id="textblock"><g><svg viewBox="0 0 342.9160314053426 247.2" height="247.2" width="342.9160314053426"><path d="M342.113 53.02C340.501 27.36 335.907 20.227 335.907 20.227 321.8-6.202 304.196-0.506 288.381 3.292 260.459 3.446 232.65 9.091 204.793 12.119 146.321 12.581 87.35 4.986 29.168 23.717 23.703 29.464-5.67 24.846 0.972 56.304 2.713 69.39 9.065 83.913 8.871 95.922 9.742 98.026 10.951 93.202 11.467 96.23 13.273 104.39 16.223 100.541 18.641 105.365 15.272 118.246 17.69 128.971 19.995 140.21 15.933 143.135 10.725 141.749 8.388 151.449 8.146 158.479 6.84 157.145 5.405 156.837 4.358 156.632 2.246 157.402 2.6 159.608 3.809 167.152-1.382 171.514 1.875 178.904-0.366 186.91 3.423 193.838 2.907 202.511 2.842 204.255 3.197 205.744 3.761 206.154 6.26 208.361 2.616 212.672 3.003 217.342 28.636 249.262 56.445 227.195 82.707 241.872 89.526 231.608 84.399 245.516 87.124 243.36 89.252 240.846 90.8 251.263 93.202 245.362 93.572 243.668 93.008 239.665 94.33 240.435 95.023 240.846 95.636 240.743 95.733 238.382 95.878 234.841 94.604 237.048 94.266 235.201 97.925 225.861 97.022 248.081 100.456 247.158 100.295 244.438 99.295 240.538 101.343 241.051 103.374 237.151 103.439 233.918 105.244 242.693 105.309 244.592 105.631 245.926 106.147 246.85 111.789 237.305 117.4 250.237 123.316 245.926 126.943 241.205 130.425 248.492 134.101 246.696 135.391 245.259 136.697 242.693 137.938 247.004 153.14 247.928 169.342 244.079 183.754 247.158 222.268 241.41 263.426 249.518 304.035 241.923 313.611 238.998 323.558 234.841 332.892 231.506 332.892 231.506 340.453 222.371 340.453 181.316S342.065 145.393 342.307 112.703C342.548 80.013 343.677 78.679 342.065 53.02Z" opacity="1" fill="#ffffff" data-fill-palette-color="tertiary"></path><g transform="matrix(1,0,0,1,55.76832,26.230666666666668)"><svg width="231.3793914053426" viewBox="1.440000057220459 -36.040000915527344 49.95000076293945 42.05000305175781" height="194.73866666666666" data-palette-color="#1b4571"><path d="M16.09-10.4L16.09-35.55 20.58-35.55 20.58-10.38Q20.58-5.27 17.98-2.39 15.38 0.49 10.99 0.49L10.99 0.49Q6.47 0.49 3.96-2.25 1.44-4.98 1.44-9.81L1.44-9.81 5.91-9.81Q5.91-6.76 7.25-5.05 8.59-3.34 10.99-3.34L10.99-3.34Q13.31-3.34 14.7-5.2 16.09-7.06 16.09-10.4L16.09-10.4ZM50.93-21.02L50.93-14.67Q50.93-9.99 49.67-6.75 48.41-3.52 46.09-1.71L46.09-1.71 51.39 3.05 48.36 6.01 41.97 0.17Q40.43 0.49 38.99 0.49L38.99 0.49Q33.44 0.49 30.26-3.41 27.07-7.3 27-14.36L27-14.36 27-20.83Q27-28 30.15-32.02 33.3-36.04 38.94-36.04L38.94-36.04Q44.63-36.04 47.75-32.12 50.88-28.2 50.93-21.02L50.93-21.02ZM46.46-14.06L46.46-20.87Q46.46-26.51 44.61-29.26 42.77-32.01 38.94-32.01L38.94-32.01Q35.28-32.01 33.38-29.22 31.49-26.44 31.47-21.02L31.47-21.02 31.47-14.67Q31.47-9.2 33.36-6.35 35.25-3.49 38.99-3.49L38.99-3.49Q42.7-3.49 44.53-6.08 46.36-8.67 46.46-14.06L46.46-14.06Z" opacity="1" transform="matrix(1,0,0,1,0,0)" fill="#1b4571" class="wordmark-text-0" data-fill-palette-color="quaternary" id="text-0"></path></svg></g></svg></g></svg></g></svg></g><g></g></svg></g><defs></defs></svg><rect width="342.9160314053426" height="247.2" fill="none" stroke="none" visibility="hidden"></rect></g></svg></g></svg>